<?xml version="1.0" encoding="UTF-8" standalone="no"?>
<svg width="694px" height="53px" viewBox="0 0 694 53" version="1.1" xmlns="http://www.w3.org/2000/svg" xmlns:xlink="http://www.w3.org/1999/xlink">
    <!-- Generator: Sketch 40.3 (33839) - http://www.bohemiancoding.com/sketch -->
    <title>Alfresco_Tagline_White</title>
    <desc>Created with Sketch.</desc>
    <defs>
        <polygon id="path-1" points="325.167 51.94 0.06 51.94 0.06 0.561 325.167 0.561 325.167 51.94"></polygon>
        <polygon id="path-3" points="0.941 37.94 262.383 37.94 262.383 0.086 0.941 0.086"></polygon>
        <polygon id="path-5" points="0.746 52.94 46.728 52.94 46.728 0.554 0.746 0.554 0.746 52.94"></polygon>
    </defs>
    <g id="Page-1" stroke="none" stroke-width="1" fill="none" fill-rule="evenodd">
        <g id="Alfresco_Tagline_White">
            <g id="Group-9" transform="translate(0.000000, 1.000000)">
                <mask id="mask-2" fill="white">
                    <use xlink:href="#path-1"></use>
                </mask>
                <g id="Clip-2"></g>
                <path d="M0.359,47.11 L6.475,47.11 L6.475,20.562 C6.475,19.483 5.9,18.979 4.892,18.979 L0,18.979 L0,14.949 L6.907,14.949 C9.928,14.949 11.295,16.244 11.295,18.979 L11.295,21.065 C11.295,22.504 11.008,23.655 11.008,23.655 L11.152,23.655 C13.021,18.763 18.849,14.086 24.604,14.086 C31.152,14.086 34.605,17.181 35.612,23.295 L35.756,23.295 C37.77,18.474 43.022,14.086 49.138,14.086 C57.842,14.086 61.08,19.195 61.08,28.115 L61.08,47.11 L67.195,47.11 L67.195,51.137 L56.187,51.137 L56.187,29.339 C56.187,23.439 54.964,18.546 48.418,18.546 C41.08,18.546 36.259,26.318 36.259,33.799 L36.259,47.11 L42.374,47.11 L42.374,51.137 L31.367,51.137 L31.367,29.339 C31.367,23.872 30.648,18.546 23.742,18.546 C16.33,18.546 11.367,26.39 11.367,33.943 L11.367,47.11 L17.482,47.11 L17.482,51.137 L0.359,51.137 L0.359,47.11" id="Fill-1" fill="#FFFFFF" mask="url(#mask-2)"></path>
                <path d="M84.241,47.972 C91.507,47.972 95.608,40.705 95.608,34.375 L95.608,32.648 L93.522,32.648 C90.572,32.648 76.471,32.359 76.471,40.705 C76.471,44.447 79.206,47.972 84.241,47.972 L84.241,47.972 Z M93.234,28.978 L95.608,28.978 L95.608,27.469 C95.608,20.704 91.94,18.33 86.903,18.33 C80.788,18.33 76.4,21.855 76.4,21.855 L74.098,18.188 C74.098,18.188 78.989,14.086 87.191,14.086 C95.968,14.086 100.501,18.763 100.501,27.683 L100.501,45.526 C100.501,46.605 101.076,47.11 102.083,47.11 L106.04,47.11 L106.04,51.137 L100.14,51.137 C97.047,51.137 95.824,49.77 95.824,47.179 L95.824,46.533 C95.824,44.807 96.039,43.726 96.039,43.726 L95.896,43.726 C95.896,43.726 92.802,52 83.522,52 C77.622,52 71.435,48.619 71.435,41.21 C71.435,29.483 87.119,28.978 93.234,28.978 L93.234,28.978 Z" id="Fill-3" fill="#FFFFFF" mask="url(#mask-2)"></path>
                <path d="M110.139,47.11 L116.254,47.11 L116.254,4.589 L109.779,4.589 L109.779,0.561 L121.146,0.561 L121.146,29.05 L126.829,29.05 L135.39,18.979 L130.211,18.979 L130.211,14.949 L145.75,14.949 L145.75,18.979 L140.715,18.979 L130.786,30.49 L130.786,30.634 C130.858,30.634 131.865,31.064 133.305,33.51 L140.499,45.598 C141.218,46.821 141.794,47.11 143.809,47.11 L146.255,47.11 L146.255,51.137 L142.225,51.137 C138.629,51.137 137.693,50.491 135.966,47.54 L128.269,34.517 C127.405,33.224 126.47,33.008 124.743,33.008 L121.146,33.008 L121.146,47.11 L126.901,47.11 L126.901,51.137 L110.139,51.137 L110.139,47.11" id="Fill-4" fill="#FFFFFF" mask="url(#mask-2)"></path>
                <path d="M178.483,29.483 C178.195,21.855 173.59,18.188 168.266,18.188 C162.224,18.188 156.972,22.144 155.821,29.483 L178.483,29.483 L178.483,29.483 Z M168.41,14.086 C178.411,14.086 183.591,21.786 183.591,30.778 C183.591,31.641 183.375,33.08 183.375,33.08 L155.604,33.08 C155.821,42.361 162.152,47.612 169.634,47.612 C176.253,47.612 180.641,43.296 180.641,43.296 L182.871,46.965 C182.871,46.965 177.691,52 169.489,52 C158.698,52 150.569,44.231 150.569,33.08 C150.569,21.209 158.626,14.086 168.41,14.086 L168.41,14.086 Z" id="Fill-5" fill="#FFFFFF" mask="url(#mask-2)"></path>
                <path d="M227.617,47.612 C234.019,47.612 239.343,42.289 239.343,33.08 C239.343,24.23 234.595,18.546 227.832,18.546 C221.79,18.546 216.106,22.865 216.106,33.152 C216.106,40.417 219.919,47.612 227.617,47.612 L227.617,47.612 Z M211.358,4.589 L204.883,4.589 L204.883,0.561 L216.249,0.561 L216.249,18.402 C216.249,20.13 216.034,21.425 216.034,21.425 L216.177,21.425 C216.177,21.425 219.343,14.086 228.552,14.086 C238.264,14.086 244.307,21.855 244.307,33.08 C244.307,44.519 237.472,52 227.977,52 C219.271,52 216.034,44.591 216.034,44.591 L215.89,44.591 C215.89,44.591 216.106,45.886 216.106,47.612 L216.106,51.137 L211.358,51.137 L211.358,4.589 L211.358,4.589 Z" id="Fill-6" fill="#FFFFFF" mask="url(#mask-2)"></path>
                <path d="M255.457,18.979 L248.982,18.979 L248.982,14.949 L260.349,14.949 L260.349,36.747 C260.349,42.433 261.213,47.468 268.262,47.468 C276.392,47.468 281.572,39.987 281.572,32.143 L281.572,18.979 L275.098,18.979 L275.098,14.949 L286.465,14.949 L286.465,45.598 C286.465,46.677 287.04,47.179 288.047,47.179 L292.148,47.179 L292.148,51.137 L286.032,51.137 C283.011,51.137 281.716,49.842 281.716,47.11 L281.716,45.31 C281.716,43.87 281.788,42.719 281.788,42.719 L281.644,42.719 C280.709,45.454 276.249,52 267.328,52 C258.983,52 255.457,47.396 255.457,37.971 L255.457,18.979" id="Fill-7" fill="#FFFFFF" mask="url(#mask-2)"></path>
                <path d="M297.828,39.915 L302.289,39.915 L302.289,42.505 C302.289,46.172 307.54,47.756 311.713,47.756 C316.318,47.756 320.202,45.742 320.202,42.073 C320.202,37.901 315.598,36.461 310.419,34.517 C304.951,32.504 299.195,30.057 299.195,23.727 C299.195,17.109 305.671,14.086 311.713,14.086 C316.606,14.086 323.728,16.172 323.728,21.137 L323.728,25.309 L319.267,25.309 L319.267,22.648 C319.267,19.986 315.67,18.33 311.857,18.33 C307.829,18.33 304.231,20.058 304.231,23.583 C304.231,27.539 308.62,29.194 313.368,30.922 C318.98,32.936 325.167,35.31 325.167,41.784 C325.167,48.044 319.556,52 311.498,52 C304.807,52 297.828,48.979 297.828,43.44 L297.828,39.915" id="Fill-8" fill="#FFFFFF" mask="url(#mask-2)"></path>
            </g>
            <path d="M337.538,7.677 L343.078,7.677 L343.078,1.561 L337.538,1.561 L337.538,7.677 Z M331.711,48.11 L337.827,48.11 L337.827,19.979 L331.352,19.979 L331.352,15.949 L342.718,15.949 L342.718,48.11 L348.833,48.11 L348.833,52.137 L331.711,52.137 L331.711,48.11 L331.711,48.11 Z" id="Fill-10" fill="#FFFFFF"></path>
            <g id="Group-17" transform="translate(353.000000, 15.000000)">
                <mask id="mask-4" fill="white">
                    <use xlink:href="#path-3"></use>
                </mask>
                <g id="Clip-12"></g>
                <path d="M1.3,33.11 L7.416,33.11 L7.416,6.562 C7.416,5.483 6.84,4.979 5.832,4.979 L0.941,4.979 L0.941,0.949 L7.847,0.949 C10.869,0.949 12.235,2.244 12.235,4.979 L12.235,7.065 C12.235,8.504 11.949,9.655 11.949,9.655 L12.094,9.655 C13.101,6.921 17.777,0.086 26.842,0.086 C35.762,0.086 38.855,5.195 38.855,14.115 L38.855,33.11 L44.971,33.11 L44.971,37.137 L33.964,37.137 L33.964,15.411 C33.964,9.727 33.027,4.69 26.049,4.69 C18.063,4.69 12.308,11.741 12.308,19.727 L12.308,33.11 L18.423,33.11 L18.423,37.137 L1.3,37.137 L1.3,33.11" id="Fill-11" fill="#FFFFFF" mask="url(#mask-4)"></path>
                <path d="M77.773,15.483 C77.485,7.855 72.881,4.188 67.558,4.188 C61.514,4.188 56.263,8.144 55.112,15.483 L77.773,15.483 L77.773,15.483 Z M67.702,0.086 C77.701,0.086 82.882,7.786 82.882,16.778 C82.882,17.641 82.666,19.08 82.666,19.08 L54.896,19.08 C55.112,28.361 61.442,33.612 68.925,33.612 C75.543,33.612 79.931,29.296 79.931,29.296 L82.161,32.965 C82.161,32.965 76.983,38 68.781,38 C57.988,38 49.859,30.231 49.859,19.08 C49.859,7.209 57.916,0.086 67.702,0.086 L67.702,0.086 Z" id="Fill-13" fill="#FFFFFF" mask="url(#mask-4)"></path>
                <path d="M89.426,25.915 L93.886,25.915 L93.886,28.505 C93.886,32.172 99.139,33.756 103.311,33.756 C107.916,33.756 111.801,31.742 111.801,28.073 C111.801,23.901 107.197,22.461 102.016,20.517 C96.549,18.504 90.793,16.057 90.793,9.727 C90.793,3.109 97.267,0.086 103.311,0.086 C108.204,0.086 115.324,2.172 115.324,7.137 L115.324,11.309 L110.864,11.309 L110.864,8.648 C110.864,5.986 107.267,4.33 103.455,4.33 C99.425,4.33 95.828,6.058 95.828,9.583 C95.828,13.539 100.218,15.194 104.965,16.922 C110.578,18.936 116.764,21.31 116.764,27.784 C116.764,34.044 111.153,38 103.095,38 C96.405,38 89.426,34.979 89.426,29.44 L89.426,25.915" id="Fill-14" fill="#FFFFFF" mask="url(#mask-4)"></path>
                <path d="M123.236,25.915 L127.698,25.915 L127.698,28.505 C127.698,32.172 132.949,33.756 137.121,33.756 C141.725,33.756 145.611,31.742 145.611,28.073 C145.611,23.901 141.007,22.461 135.828,20.517 C130.358,18.504 124.603,16.057 124.603,9.727 C124.603,3.109 131.079,0.086 137.121,0.086 C142.013,0.086 149.136,2.172 149.136,7.137 L149.136,11.309 L144.676,11.309 L144.676,8.648 C144.676,5.986 141.079,4.33 137.265,4.33 C133.237,4.33 129.64,6.058 129.64,9.583 C129.64,13.539 134.028,15.194 138.776,16.922 C144.388,18.936 150.576,21.31 150.576,27.784 C150.576,34.044 144.964,38 136.907,38 C130.214,38 123.236,34.979 123.236,29.44 L123.236,25.915" id="Fill-15" fill="#FFFFFF" mask="url(#mask-4)"></path>
                <path d="M243.247,33.612 C251.016,33.612 257.348,27.282 257.348,18.864 C257.348,10.662 251.016,4.474 243.247,4.474 C235.549,4.474 229.217,10.662 229.217,18.864 C229.217,27.282 235.549,33.612 243.247,33.612 L243.247,33.612 Z M243.247,0.086 C253.823,0.086 262.383,8.144 262.383,18.864 C262.383,29.798 253.823,38 243.247,38 C232.743,38 224.18,29.798 224.18,18.864 C224.18,8.144 232.743,0.086 243.247,0.086 L243.247,0.086 Z" id="Fill-16" fill="#FFFFFF" mask="url(#mask-4)"></path>
            </g>
            <path d="M618.906,15.949 L633.87,15.949 L633.87,19.979 L628.475,19.979 L636.028,44.296 C636.46,45.591 636.605,47.1 636.605,47.1 L636.749,47.1 C636.749,47.1 636.963,45.591 637.323,44.296 L646.388,16.093 L651.208,16.093 L660.273,44.296 C660.633,45.591 660.85,47.1 660.85,47.1 L660.994,47.1 C660.994,47.1 661.136,45.591 661.496,44.296 L669.124,19.979 L663.726,19.979 L663.726,15.949 L678.69,15.949 L678.69,19.979 L674.014,19.979 L663.726,52.137 L658.475,52.137 L649.555,25.016 C649.122,23.72 648.906,22.137 648.906,22.137 L648.69,22.137 C648.69,22.137 648.474,23.72 648.043,25.016 L639.123,52.137 L633.798,52.137 L623.51,19.979 L618.906,19.979 L618.906,15.949" id="Fill-18" fill="#FFFFFF"></path>
            <g id="Group-22" transform="translate(527.000000, 0.000000)">
                <mask id="mask-6" fill="white">
                    <use xlink:href="#path-5"></use>
                </mask>
                <g id="Clip-20"></g>
                <path d="M22.473,4.654 C23.493,4.654 24.366,4.698 25.147,4.759 L25.147,0.635 C24.318,0.586 23.452,0.554 22.545,0.554 C15.566,0.554 7.22,3.503 7.22,14.726 L7.22,15.949 L0.746,15.949 L0.746,19.979 L7.22,19.979 L7.22,48.11 L1.104,48.11 L1.104,52.137 L19.308,52.137 L19.308,48.11 L12.113,48.11 L12.113,19.979 L21.322,19.979 L21.322,15.949 L12.113,15.949 L12.113,14.656 C12.113,6.812 17.508,4.654 22.473,4.654" id="Fill-19" fill="#FFFFFF" mask="url(#mask-6)"></path>
                <path d="M45.003,48.69 C41.261,48.69 40.615,46.206 40.615,43.209 L40.615,7.72 L40.612,7.72 L40.612,5.057 L40.598,5.057 L40.598,4.47 L40.612,4.47 L40.612,0.554 L29.246,0.554 L29.246,4.47 L35.722,4.47 L35.722,43.575 C35.722,50.662 39.103,53 43.996,53 C45.361,53 46.728,52.78 46.728,52.78 L46.728,48.544 C46.728,48.544 45.938,48.69 45.003,48.69" id="Fill-21" fill="#FFFFFF" mask="url(#mask-6)"></path>
            </g>
            <path d="M692.304,20.464 L692.137,17.772 C692.119,17.419 692.119,16.981 692.103,16.493 L692.052,16.493 C691.935,16.897 691.8,17.436 691.665,17.856 L690.841,20.397 L689.899,20.397 L689.074,17.789 C688.99,17.436 688.855,16.897 688.755,16.493 L688.704,16.493 C688.704,16.914 688.688,17.352 688.67,17.772 L688.502,20.464 L687.627,20.464 L687.964,15.888 L689.327,15.888 L690.117,18.126 C690.219,18.478 690.303,18.815 690.421,19.287 L690.437,19.287 C690.555,18.865 690.656,18.478 690.757,18.142 L691.547,15.888 L692.86,15.888 L693.213,20.464 L692.304,20.464 L692.304,20.464 Z M687.358,15.888 L687.358,16.645 L685.894,16.645 L685.894,20.464 L684.986,20.464 L684.986,16.645 L683.522,16.645 L683.522,15.888 L687.358,15.888 L687.358,15.888 Z" id="Fill-23" fill="#FFFFFF"></path>
        </g>
    </g>
</svg>